<mxfile host="www.draw.io" modified="2020-01-09T19:34:19.304Z" agent="Mozilla/5.0 (Windows NT 10.0; Win64; x64; rv:72.0) Gecko/20100101 Firefox/72.0" etag="vI2gq9pqx7y-4FUhLHQn" version="12.5.1" type="github">
  <diagram id="aKnapilu4VbPMdmHvtpG" name="Page-1">
    <mxGraphModel dx="813" dy="1621" grid="1" gridSize="10" guides="1" tooltips="1" connect="1" arrows="1" fold="1" page="1" pageScale="1" pageWidth="827" pageHeight="1169" math="0" shadow="0">
      <root>
        <mxCell id="0"/>
        <mxCell id="1" parent="0"/>
        <mxCell id="FThrdgvU3FcOJhcMpGba-1" value="Competizione" style="rounded=0;whiteSpace=wrap;html=1;" parent="1" vertex="1">
          <mxGeometry x="145" y="-225.17000000000002" width="120" height="30" as="geometry"/>
        </mxCell>
        <mxCell id="FThrdgvU3FcOJhcMpGba-11" value="" style="edgeStyle=orthogonalEdgeStyle;rounded=0;orthogonalLoop=1;jettySize=auto;html=1;endArrow=none;endFill=0;" parent="1" source="FThrdgvU3FcOJhcMpGba-2" target="FThrdgvU3FcOJhcMpGba-10" edge="1">
          <mxGeometry relative="1" as="geometry"/>
        </mxCell>
        <mxCell id="FThrdgvU3FcOJhcMpGba-16" value="" style="edgeStyle=orthogonalEdgeStyle;rounded=0;orthogonalLoop=1;jettySize=auto;html=1;endArrow=oval;endFill=0;" parent="1" source="FThrdgvU3FcOJhcMpGba-2" edge="1">
          <mxGeometry relative="1" as="geometry">
            <mxPoint x="355" y="-255.17000000000002" as="targetPoint"/>
          </mxGeometry>
        </mxCell>
        <mxCell id="FThrdgvU3FcOJhcMpGba-2" value="Tipo" style="rhombus;whiteSpace=wrap;html=1;" parent="1" vertex="1">
          <mxGeometry x="315" y="-230.17000000000002" width="80" height="40" as="geometry"/>
        </mxCell>
        <mxCell id="FThrdgvU3FcOJhcMpGba-9" value="" style="endArrow=none;html=1;entryX=0;entryY=0.5;entryDx=0;entryDy=0;exitX=1;exitY=0.5;exitDx=0;exitDy=0;" parent="1" source="FThrdgvU3FcOJhcMpGba-1" target="FThrdgvU3FcOJhcMpGba-2" edge="1">
          <mxGeometry width="50" height="50" relative="1" as="geometry">
            <mxPoint x="185" y="-105.17" as="sourcePoint"/>
            <mxPoint x="235" y="-155.17000000000002" as="targetPoint"/>
          </mxGeometry>
        </mxCell>
        <mxCell id="FThrdgvU3FcOJhcMpGba-19" value="" style="edgeStyle=orthogonalEdgeStyle;rounded=0;orthogonalLoop=1;jettySize=auto;html=1;endArrow=oval;endFill=1;" parent="1" source="FThrdgvU3FcOJhcMpGba-10" edge="1">
          <mxGeometry relative="1" as="geometry">
            <mxPoint x="535" y="-210.17000000000002" as="targetPoint"/>
          </mxGeometry>
        </mxCell>
        <mxCell id="FThrdgvU3FcOJhcMpGba-21" style="edgeStyle=orthogonalEdgeStyle;rounded=0;orthogonalLoop=1;jettySize=auto;html=1;exitX=1;exitY=0;exitDx=0;exitDy=0;endArrow=oval;endFill=0;" parent="1" source="FThrdgvU3FcOJhcMpGba-10" edge="1">
          <mxGeometry relative="1" as="geometry">
            <mxPoint x="534.8571428571429" y="-245.0271428571429" as="targetPoint"/>
          </mxGeometry>
        </mxCell>
        <mxCell id="FThrdgvU3FcOJhcMpGba-10" value="Sport" style="rounded=0;whiteSpace=wrap;html=1;" parent="1" vertex="1">
          <mxGeometry x="425" y="-225.17000000000002" width="80" height="30" as="geometry"/>
        </mxCell>
        <mxCell id="FThrdgvU3FcOJhcMpGba-12" value="" style="endArrow=oval;html=1;endFill=1;" parent="1" edge="1">
          <mxGeometry width="50" height="50" relative="1" as="geometry">
            <mxPoint x="215" y="-185.17000000000002" as="sourcePoint"/>
            <mxPoint x="245" y="-245.17000000000002" as="targetPoint"/>
            <Array as="points">
              <mxPoint x="295" y="-185.17000000000002"/>
              <mxPoint x="295" y="-245.17000000000002"/>
            </Array>
          </mxGeometry>
        </mxCell>
        <mxCell id="FThrdgvU3FcOJhcMpGba-17" value="Disciplina" style="text;html=1;align=center;verticalAlign=middle;resizable=0;points=[];;autosize=1;" parent="1" vertex="1">
          <mxGeometry x="325" y="-275.17" width="70" height="20" as="geometry"/>
        </mxCell>
        <mxCell id="FThrdgvU3FcOJhcMpGba-20" value="Nome" style="text;html=1;align=center;verticalAlign=middle;resizable=0;points=[];;autosize=1;" parent="1" vertex="1">
          <mxGeometry x="535" y="-220.17000000000002" width="50" height="20" as="geometry"/>
        </mxCell>
        <mxCell id="FThrdgvU3FcOJhcMpGba-22" value="Regolamento" style="text;html=1;align=center;verticalAlign=middle;resizable=0;points=[];;autosize=1;" parent="1" vertex="1">
          <mxGeometry x="535" y="-255.17000000000002" width="90" height="20" as="geometry"/>
        </mxCell>
        <mxCell id="FThrdgvU3FcOJhcMpGba-41" style="edgeStyle=orthogonalEdgeStyle;rounded=0;orthogonalLoop=1;jettySize=auto;html=1;exitX=0.75;exitY=1;exitDx=0;exitDy=0;endArrow=oval;endFill=1;" parent="1" source="FThrdgvU3FcOJhcMpGba-23" edge="1">
          <mxGeometry relative="1" as="geometry">
            <mxPoint x="235" y="-435.33666666666653" as="targetPoint"/>
          </mxGeometry>
        </mxCell>
        <mxCell id="FThrdgvU3FcOJhcMpGba-23" value="Competizione" style="rounded=0;whiteSpace=wrap;html=1;" parent="1" vertex="1">
          <mxGeometry x="145" y="-495.17" width="120" height="30" as="geometry"/>
        </mxCell>
        <mxCell id="FThrdgvU3FcOJhcMpGba-24" value="" style="edgeStyle=orthogonalEdgeStyle;rounded=0;orthogonalLoop=1;jettySize=auto;html=1;endArrow=none;endFill=0;" parent="1" source="FThrdgvU3FcOJhcMpGba-26" target="FThrdgvU3FcOJhcMpGba-32" edge="1">
          <mxGeometry relative="1" as="geometry"/>
        </mxCell>
        <mxCell id="FThrdgvU3FcOJhcMpGba-26" value="Tipo" style="rhombus;whiteSpace=wrap;html=1;" parent="1" vertex="1">
          <mxGeometry x="315" y="-500.17" width="80" height="40" as="geometry"/>
        </mxCell>
        <mxCell id="FThrdgvU3FcOJhcMpGba-29" value="" style="endArrow=none;html=1;entryX=0;entryY=0.5;entryDx=0;entryDy=0;exitX=1;exitY=0.5;exitDx=0;exitDy=0;" parent="1" source="FThrdgvU3FcOJhcMpGba-23" target="FThrdgvU3FcOJhcMpGba-26" edge="1">
          <mxGeometry width="50" height="50" relative="1" as="geometry">
            <mxPoint x="185" y="-375.17" as="sourcePoint"/>
            <mxPoint x="235" y="-425.17" as="targetPoint"/>
          </mxGeometry>
        </mxCell>
        <mxCell id="FThrdgvU3FcOJhcMpGba-30" value="" style="edgeStyle=orthogonalEdgeStyle;rounded=0;orthogonalLoop=1;jettySize=auto;html=1;endArrow=oval;endFill=1;" parent="1" source="FThrdgvU3FcOJhcMpGba-32" edge="1">
          <mxGeometry relative="1" as="geometry">
            <mxPoint x="535" y="-480.17" as="targetPoint"/>
          </mxGeometry>
        </mxCell>
        <mxCell id="FThrdgvU3FcOJhcMpGba-31" style="edgeStyle=orthogonalEdgeStyle;rounded=0;orthogonalLoop=1;jettySize=auto;html=1;exitX=1;exitY=0;exitDx=0;exitDy=0;endArrow=oval;endFill=0;" parent="1" source="FThrdgvU3FcOJhcMpGba-32" edge="1">
          <mxGeometry relative="1" as="geometry">
            <mxPoint x="535" y="-515.3366666666666" as="targetPoint"/>
          </mxGeometry>
        </mxCell>
        <mxCell id="FThrdgvU3FcOJhcMpGba-38" style="edgeStyle=orthogonalEdgeStyle;rounded=0;orthogonalLoop=1;jettySize=auto;html=1;exitX=0.5;exitY=0;exitDx=0;exitDy=0;entryX=0.429;entryY=1;entryDx=0;entryDy=0;entryPerimeter=0;endArrow=oval;endFill=0;" parent="1" source="FThrdgvU3FcOJhcMpGba-32" target="FThrdgvU3FcOJhcMpGba-34" edge="1">
          <mxGeometry relative="1" as="geometry"/>
        </mxCell>
        <mxCell id="FThrdgvU3FcOJhcMpGba-32" value="Sport" style="rounded=0;whiteSpace=wrap;html=1;" parent="1" vertex="1">
          <mxGeometry x="425" y="-495.17" width="80" height="30" as="geometry"/>
        </mxCell>
        <mxCell id="FThrdgvU3FcOJhcMpGba-33" value="" style="endArrow=oval;html=1;endFill=1;" parent="1" edge="1">
          <mxGeometry width="50" height="50" relative="1" as="geometry">
            <mxPoint x="215" y="-455.17" as="sourcePoint"/>
            <mxPoint x="245" y="-515.1700000000001" as="targetPoint"/>
            <Array as="points">
              <mxPoint x="295" y="-455.17"/>
              <mxPoint x="295" y="-515.1700000000001"/>
            </Array>
          </mxGeometry>
        </mxCell>
        <mxCell id="FThrdgvU3FcOJhcMpGba-34" value="Disciplina" style="text;html=1;align=center;verticalAlign=middle;resizable=0;points=[];;autosize=1;" parent="1" vertex="1">
          <mxGeometry x="435" y="-535.1700000000001" width="70" height="20" as="geometry"/>
        </mxCell>
        <mxCell id="FThrdgvU3FcOJhcMpGba-35" value="Nome" style="text;html=1;align=center;verticalAlign=middle;resizable=0;points=[];;autosize=1;" parent="1" vertex="1">
          <mxGeometry x="535" y="-490.17" width="50" height="20" as="geometry"/>
        </mxCell>
        <mxCell id="FThrdgvU3FcOJhcMpGba-36" value="Regolamento" style="text;html=1;align=center;verticalAlign=middle;resizable=0;points=[];;autosize=1;" parent="1" vertex="1">
          <mxGeometry x="535" y="-515.1700000000001" width="90" height="20" as="geometry"/>
        </mxCell>
        <mxCell id="FThrdgvU3FcOJhcMpGba-42" value="Sesso" style="text;html=1;align=center;verticalAlign=middle;resizable=0;points=[];;autosize=1;" parent="1" vertex="1">
          <mxGeometry x="215" y="-435.17" width="50" height="20" as="geometry"/>
        </mxCell>
        <mxCell id="FThrdgvU3FcOJhcMpGba-43" style="edgeStyle=orthogonalEdgeStyle;rounded=0;orthogonalLoop=1;jettySize=auto;html=1;exitX=0.75;exitY=1;exitDx=0;exitDy=0;endArrow=oval;endFill=1;" parent="1" edge="1">
          <mxGeometry relative="1" as="geometry">
            <mxPoint x="235" y="-165.16666666666652" as="targetPoint"/>
            <mxPoint x="235" y="-195.16666666666652" as="sourcePoint"/>
          </mxGeometry>
        </mxCell>
        <mxCell id="FThrdgvU3FcOJhcMpGba-44" value="Sesso" style="text;html=1;align=center;verticalAlign=middle;resizable=0;points=[];;autosize=1;" parent="1" vertex="1">
          <mxGeometry x="215" y="-165" width="50" height="20" as="geometry"/>
        </mxCell>
        <mxCell id="FThrdgvU3FcOJhcMpGba-58" value="Competizione" style="rounded=0;whiteSpace=wrap;html=1;" parent="1" vertex="1">
          <mxGeometry x="145" y="-365.17" width="120" height="30" as="geometry"/>
        </mxCell>
        <mxCell id="FThrdgvU3FcOJhcMpGba-59" value="" style="edgeStyle=orthogonalEdgeStyle;rounded=0;orthogonalLoop=1;jettySize=auto;html=1;endArrow=none;endFill=0;" parent="1" source="FThrdgvU3FcOJhcMpGba-61" target="FThrdgvU3FcOJhcMpGba-65" edge="1">
          <mxGeometry relative="1" as="geometry"/>
        </mxCell>
        <mxCell id="FThrdgvU3FcOJhcMpGba-60" value="" style="edgeStyle=orthogonalEdgeStyle;rounded=0;orthogonalLoop=1;jettySize=auto;html=1;endArrow=oval;endFill=0;" parent="1" source="FThrdgvU3FcOJhcMpGba-61" edge="1">
          <mxGeometry relative="1" as="geometry">
            <mxPoint x="355" y="-395.17" as="targetPoint"/>
          </mxGeometry>
        </mxCell>
        <mxCell id="FThrdgvU3FcOJhcMpGba-61" value="Tipo" style="rhombus;whiteSpace=wrap;html=1;" parent="1" vertex="1">
          <mxGeometry x="315" y="-370.17" width="80" height="40" as="geometry"/>
        </mxCell>
        <mxCell id="FThrdgvU3FcOJhcMpGba-62" value="" style="endArrow=none;html=1;entryX=0;entryY=0.5;entryDx=0;entryDy=0;exitX=1;exitY=0.5;exitDx=0;exitDy=0;" parent="1" source="FThrdgvU3FcOJhcMpGba-58" target="FThrdgvU3FcOJhcMpGba-61" edge="1">
          <mxGeometry width="50" height="50" relative="1" as="geometry">
            <mxPoint x="185" y="-245.17000000000002" as="sourcePoint"/>
            <mxPoint x="235" y="-295.17" as="targetPoint"/>
          </mxGeometry>
        </mxCell>
        <mxCell id="FThrdgvU3FcOJhcMpGba-63" value="" style="edgeStyle=orthogonalEdgeStyle;rounded=0;orthogonalLoop=1;jettySize=auto;html=1;endArrow=oval;endFill=1;" parent="1" source="FThrdgvU3FcOJhcMpGba-65" edge="1">
          <mxGeometry relative="1" as="geometry">
            <mxPoint x="535" y="-350.17" as="targetPoint"/>
          </mxGeometry>
        </mxCell>
        <mxCell id="FThrdgvU3FcOJhcMpGba-64" style="edgeStyle=orthogonalEdgeStyle;rounded=0;orthogonalLoop=1;jettySize=auto;html=1;exitX=1;exitY=0;exitDx=0;exitDy=0;endArrow=oval;endFill=0;" parent="1" source="FThrdgvU3FcOJhcMpGba-65" edge="1">
          <mxGeometry relative="1" as="geometry">
            <mxPoint x="535" y="-385.33666666666653" as="targetPoint"/>
          </mxGeometry>
        </mxCell>
        <mxCell id="FThrdgvU3FcOJhcMpGba-65" value="Sport" style="rounded=0;whiteSpace=wrap;html=1;" parent="1" vertex="1">
          <mxGeometry x="425" y="-365.17" width="80" height="30" as="geometry"/>
        </mxCell>
        <mxCell id="FThrdgvU3FcOJhcMpGba-66" value="" style="endArrow=oval;html=1;endFill=1;" parent="1" edge="1">
          <mxGeometry width="50" height="50" relative="1" as="geometry">
            <mxPoint x="215" y="-325.17" as="sourcePoint"/>
            <mxPoint x="245" y="-385.17" as="targetPoint"/>
            <Array as="points">
              <mxPoint x="295" y="-325.17"/>
              <mxPoint x="295" y="-385.17"/>
            </Array>
          </mxGeometry>
        </mxCell>
        <mxCell id="FThrdgvU3FcOJhcMpGba-67" value="Disciplina (0,1)" style="text;html=1;align=center;verticalAlign=middle;resizable=0;points=[];;autosize=1;" parent="1" vertex="1">
          <mxGeometry x="315" y="-415.17" width="90" height="20" as="geometry"/>
        </mxCell>
        <mxCell id="FThrdgvU3FcOJhcMpGba-68" value="Nome" style="text;html=1;align=center;verticalAlign=middle;resizable=0;points=[];;autosize=1;" parent="1" vertex="1">
          <mxGeometry x="535" y="-360.17" width="50" height="20" as="geometry"/>
        </mxCell>
        <mxCell id="FThrdgvU3FcOJhcMpGba-69" value="Regolamento" style="text;html=1;align=center;verticalAlign=middle;resizable=0;points=[];;autosize=1;" parent="1" vertex="1">
          <mxGeometry x="535" y="-395.17" width="90" height="20" as="geometry"/>
        </mxCell>
        <mxCell id="FThrdgvU3FcOJhcMpGba-70" style="edgeStyle=orthogonalEdgeStyle;rounded=0;orthogonalLoop=1;jettySize=auto;html=1;exitX=0.75;exitY=1;exitDx=0;exitDy=0;endArrow=oval;endFill=1;" parent="1" edge="1">
          <mxGeometry relative="1" as="geometry">
            <mxPoint x="235" y="-305.33666666666653" as="targetPoint"/>
            <mxPoint x="235" y="-335.16666666666646" as="sourcePoint"/>
          </mxGeometry>
        </mxCell>
        <mxCell id="FThrdgvU3FcOJhcMpGba-71" value="Sesso" style="text;html=1;align=center;verticalAlign=middle;resizable=0;points=[];;autosize=1;" parent="1" vertex="1">
          <mxGeometry x="215" y="-305" width="50" height="20" as="geometry"/>
        </mxCell>
        <mxCell id="FThrdgvU3FcOJhcMpGba-74" style="edgeStyle=orthogonalEdgeStyle;rounded=0;orthogonalLoop=1;jettySize=auto;html=1;exitX=0.75;exitY=1;exitDx=0;exitDy=0;endArrow=oval;endFill=1;" parent="1" source="FThrdgvU3FcOJhcMpGba-75" edge="1">
          <mxGeometry relative="1" as="geometry">
            <mxPoint x="235" y="-575.3366666666665" as="targetPoint"/>
          </mxGeometry>
        </mxCell>
        <mxCell id="FThrdgvU3FcOJhcMpGba-75" value="Competizione" style="rounded=0;whiteSpace=wrap;html=1;" parent="1" vertex="1">
          <mxGeometry x="145" y="-635.17" width="120" height="30" as="geometry"/>
        </mxCell>
        <mxCell id="FThrdgvU3FcOJhcMpGba-76" value="" style="edgeStyle=orthogonalEdgeStyle;rounded=0;orthogonalLoop=1;jettySize=auto;html=1;endArrow=none;endFill=0;" parent="1" source="FThrdgvU3FcOJhcMpGba-77" target="FThrdgvU3FcOJhcMpGba-82" edge="1">
          <mxGeometry relative="1" as="geometry"/>
        </mxCell>
        <mxCell id="FThrdgvU3FcOJhcMpGba-77" value="Tipo" style="rhombus;whiteSpace=wrap;html=1;" parent="1" vertex="1">
          <mxGeometry x="315" y="-640.17" width="80" height="40" as="geometry"/>
        </mxCell>
        <mxCell id="FThrdgvU3FcOJhcMpGba-78" value="" style="endArrow=none;html=1;entryX=0;entryY=0.5;entryDx=0;entryDy=0;exitX=1;exitY=0.5;exitDx=0;exitDy=0;" parent="1" source="FThrdgvU3FcOJhcMpGba-75" target="FThrdgvU3FcOJhcMpGba-77" edge="1">
          <mxGeometry width="50" height="50" relative="1" as="geometry">
            <mxPoint x="185" y="-515.1700000000001" as="sourcePoint"/>
            <mxPoint x="235" y="-565.17" as="targetPoint"/>
          </mxGeometry>
        </mxCell>
        <mxCell id="FThrdgvU3FcOJhcMpGba-79" value="" style="edgeStyle=orthogonalEdgeStyle;rounded=0;orthogonalLoop=1;jettySize=auto;html=1;endArrow=oval;endFill=1;" parent="1" source="FThrdgvU3FcOJhcMpGba-82" edge="1">
          <mxGeometry relative="1" as="geometry">
            <mxPoint x="535" y="-620.17" as="targetPoint"/>
          </mxGeometry>
        </mxCell>
        <mxCell id="FThrdgvU3FcOJhcMpGba-80" style="edgeStyle=orthogonalEdgeStyle;rounded=0;orthogonalLoop=1;jettySize=auto;html=1;exitX=1;exitY=0;exitDx=0;exitDy=0;endArrow=oval;endFill=0;" parent="1" source="FThrdgvU3FcOJhcMpGba-82" edge="1">
          <mxGeometry relative="1" as="geometry">
            <mxPoint x="535" y="-655.3366666666665" as="targetPoint"/>
          </mxGeometry>
        </mxCell>
        <mxCell id="FThrdgvU3FcOJhcMpGba-82" value="Sport" style="rounded=0;whiteSpace=wrap;html=1;" parent="1" vertex="1">
          <mxGeometry x="425" y="-635.17" width="80" height="30" as="geometry"/>
        </mxCell>
        <mxCell id="FThrdgvU3FcOJhcMpGba-83" value="" style="endArrow=oval;html=1;endFill=1;" parent="1" edge="1">
          <mxGeometry width="50" height="50" relative="1" as="geometry">
            <mxPoint x="215" y="-595.17" as="sourcePoint"/>
            <mxPoint x="245" y="-655.17" as="targetPoint"/>
            <Array as="points">
              <mxPoint x="295" y="-595.17"/>
              <mxPoint x="295" y="-655.17"/>
            </Array>
          </mxGeometry>
        </mxCell>
        <mxCell id="FThrdgvU3FcOJhcMpGba-85" value="Nome" style="text;html=1;align=center;verticalAlign=middle;resizable=0;points=[];;autosize=1;" parent="1" vertex="1">
          <mxGeometry x="535" y="-630.17" width="50" height="20" as="geometry"/>
        </mxCell>
        <mxCell id="FThrdgvU3FcOJhcMpGba-86" value="Sesso" style="text;html=1;align=center;verticalAlign=middle;resizable=0;points=[];;autosize=1;" parent="1" vertex="1">
          <mxGeometry x="215" y="-575.17" width="50" height="20" as="geometry"/>
        </mxCell>
        <mxCell id="FThrdgvU3FcOJhcMpGba-87" value="Regolamento" style="text;html=1;align=center;verticalAlign=middle;resizable=0;points=[];;autosize=1;" parent="1" vertex="1">
          <mxGeometry x="535" y="-660.17" width="90" height="20" as="geometry"/>
        </mxCell>
        <mxCell id="FThrdgvU3FcOJhcMpGba-89" style="edgeStyle=orthogonalEdgeStyle;rounded=0;orthogonalLoop=1;jettySize=auto;html=1;exitX=0.5;exitY=0;exitDx=0;exitDy=0;entryX=0.429;entryY=1;entryDx=0;entryDy=0;entryPerimeter=0;endArrow=oval;endFill=0;" parent="1" target="FThrdgvU3FcOJhcMpGba-90" edge="1">
          <mxGeometry relative="1" as="geometry">
            <mxPoint x="205" y="-635.1666666666665" as="sourcePoint"/>
          </mxGeometry>
        </mxCell>
        <mxCell id="FThrdgvU3FcOJhcMpGba-90" value="Disciplina" style="text;html=1;align=center;verticalAlign=middle;resizable=0;points=[];;autosize=1;" parent="1" vertex="1">
          <mxGeometry x="165" y="-685" width="70" height="20" as="geometry"/>
        </mxCell>
        <mxCell id="FThrdgvU3FcOJhcMpGba-91" style="edgeStyle=orthogonalEdgeStyle;rounded=0;orthogonalLoop=1;jettySize=auto;html=1;exitX=0.75;exitY=1;exitDx=0;exitDy=0;endArrow=oval;endFill=1;" parent="1" source="FThrdgvU3FcOJhcMpGba-92" edge="1">
          <mxGeometry relative="1" as="geometry">
            <mxPoint x="232" y="-730.1666666666664" as="targetPoint"/>
          </mxGeometry>
        </mxCell>
        <mxCell id="FThrdgvU3FcOJhcMpGba-92" value="Competizione" style="rounded=0;whiteSpace=wrap;html=1;" parent="1" vertex="1">
          <mxGeometry x="142" y="-789.9999999999999" width="120" height="30" as="geometry"/>
        </mxCell>
        <mxCell id="FThrdgvU3FcOJhcMpGba-93" value="" style="edgeStyle=orthogonalEdgeStyle;rounded=0;orthogonalLoop=1;jettySize=auto;html=1;endArrow=none;endFill=0;" parent="1" source="FThrdgvU3FcOJhcMpGba-94" target="FThrdgvU3FcOJhcMpGba-98" edge="1">
          <mxGeometry relative="1" as="geometry"/>
        </mxCell>
        <mxCell id="FThrdgvU3FcOJhcMpGba-94" value="Tipo" style="rhombus;whiteSpace=wrap;html=1;" parent="1" vertex="1">
          <mxGeometry x="312" y="-794.9999999999999" width="80" height="40" as="geometry"/>
        </mxCell>
        <mxCell id="FThrdgvU3FcOJhcMpGba-95" value="" style="endArrow=none;html=1;entryX=0;entryY=0.5;entryDx=0;entryDy=0;exitX=1;exitY=0.5;exitDx=0;exitDy=0;" parent="1" source="FThrdgvU3FcOJhcMpGba-92" target="FThrdgvU3FcOJhcMpGba-94" edge="1">
          <mxGeometry width="50" height="50" relative="1" as="geometry">
            <mxPoint x="182" y="-669.9999999999999" as="sourcePoint"/>
            <mxPoint x="232" y="-719.9999999999999" as="targetPoint"/>
          </mxGeometry>
        </mxCell>
        <mxCell id="FThrdgvU3FcOJhcMpGba-96" value="" style="edgeStyle=orthogonalEdgeStyle;rounded=0;orthogonalLoop=1;jettySize=auto;html=1;endArrow=oval;endFill=1;" parent="1" source="FThrdgvU3FcOJhcMpGba-98" edge="1">
          <mxGeometry relative="1" as="geometry">
            <mxPoint x="532" y="-774.9999999999999" as="targetPoint"/>
          </mxGeometry>
        </mxCell>
        <mxCell id="FThrdgvU3FcOJhcMpGba-97" style="edgeStyle=orthogonalEdgeStyle;rounded=0;orthogonalLoop=1;jettySize=auto;html=1;exitX=1;exitY=0;exitDx=0;exitDy=0;endArrow=oval;endFill=0;" parent="1" source="FThrdgvU3FcOJhcMpGba-98" edge="1">
          <mxGeometry relative="1" as="geometry">
            <mxPoint x="532" y="-810.1666666666664" as="targetPoint"/>
          </mxGeometry>
        </mxCell>
        <mxCell id="FThrdgvU3FcOJhcMpGba-98" value="Sport" style="rounded=0;whiteSpace=wrap;html=1;" parent="1" vertex="1">
          <mxGeometry x="422" y="-789.9999999999999" width="80" height="30" as="geometry"/>
        </mxCell>
        <mxCell id="FThrdgvU3FcOJhcMpGba-107" value="Disciplina" style="rounded=0;whiteSpace=wrap;html=1;" parent="1" vertex="1">
          <mxGeometry x="422" y="-899.9999999999999" width="80" height="30" as="geometry"/>
        </mxCell>
        <mxCell id="FThrdgvU3FcOJhcMpGba-99" value="" style="endArrow=oval;html=1;endFill=1;" parent="1" edge="1">
          <mxGeometry width="50" height="50" relative="1" as="geometry">
            <mxPoint x="212" y="-749.9999999999999" as="sourcePoint"/>
            <mxPoint x="242" y="-809.9999999999999" as="targetPoint"/>
            <Array as="points">
              <mxPoint x="292" y="-749.9999999999999"/>
              <mxPoint x="292" y="-809.9999999999999"/>
            </Array>
          </mxGeometry>
        </mxCell>
        <mxCell id="FThrdgvU3FcOJhcMpGba-101" value="Nome" style="text;html=1;align=center;verticalAlign=middle;resizable=0;points=[];;autosize=1;" parent="1" vertex="1">
          <mxGeometry x="532" y="-784.9999999999999" width="50" height="20" as="geometry"/>
        </mxCell>
        <mxCell id="FThrdgvU3FcOJhcMpGba-102" value="Regolamento" style="text;html=1;align=center;verticalAlign=middle;resizable=0;points=[];;autosize=1;" parent="1" vertex="1">
          <mxGeometry x="512" y="-834.9999999999999" width="90" height="20" as="geometry"/>
        </mxCell>
        <mxCell id="FThrdgvU3FcOJhcMpGba-105" value="Sesso" style="text;html=1;align=center;verticalAlign=middle;resizable=0;points=[];;autosize=1;" parent="1" vertex="1">
          <mxGeometry x="237" y="-739.9999999999999" width="50" height="20" as="geometry"/>
        </mxCell>
        <mxCell id="FThrdgvU3FcOJhcMpGba-109" value="" style="edgeStyle=orthogonalEdgeStyle;rounded=0;orthogonalLoop=1;jettySize=auto;html=1;endArrow=oval;endFill=1;" parent="1" edge="1">
          <mxGeometry relative="1" as="geometry">
            <mxPoint x="532" y="-889.9999999999998" as="targetPoint"/>
            <mxPoint x="502" y="-889.9966666666666" as="sourcePoint"/>
          </mxGeometry>
        </mxCell>
        <mxCell id="FThrdgvU3FcOJhcMpGba-110" value="ID" style="text;html=1;align=center;verticalAlign=middle;resizable=0;points=[];;autosize=1;" parent="1" vertex="1">
          <mxGeometry x="542" y="-899.9999999999999" width="30" height="20" as="geometry"/>
        </mxCell>
        <mxCell id="FThrdgvU3FcOJhcMpGba-111" style="edgeStyle=orthogonalEdgeStyle;rounded=0;orthogonalLoop=1;jettySize=auto;html=1;exitX=0.75;exitY=1;exitDx=0;exitDy=0;endArrow=oval;endFill=1;" parent="1" source="FThrdgvU3FcOJhcMpGba-112" edge="1">
          <mxGeometry relative="1" as="geometry">
            <mxPoint x="235" y="-915.1666666666665" as="targetPoint"/>
          </mxGeometry>
        </mxCell>
        <mxCell id="FThrdgvU3FcOJhcMpGba-112" value="Competizione" style="rounded=0;whiteSpace=wrap;html=1;" parent="1" vertex="1">
          <mxGeometry x="145" y="-975.17" width="120" height="30" as="geometry"/>
        </mxCell>
        <mxCell id="FThrdgvU3FcOJhcMpGba-113" value="" style="edgeStyle=orthogonalEdgeStyle;rounded=0;orthogonalLoop=1;jettySize=auto;html=1;endArrow=none;endFill=0;" parent="1" source="FThrdgvU3FcOJhcMpGba-114" target="FThrdgvU3FcOJhcMpGba-119" edge="1">
          <mxGeometry relative="1" as="geometry"/>
        </mxCell>
        <mxCell id="FThrdgvU3FcOJhcMpGba-114" value="Tipo" style="rhombus;whiteSpace=wrap;html=1;" parent="1" vertex="1">
          <mxGeometry x="315" y="-980.17" width="80" height="40" as="geometry"/>
        </mxCell>
        <mxCell id="FThrdgvU3FcOJhcMpGba-115" value="" style="endArrow=none;html=1;entryX=0;entryY=0.5;entryDx=0;entryDy=0;exitX=1;exitY=0.5;exitDx=0;exitDy=0;" parent="1" source="FThrdgvU3FcOJhcMpGba-112" target="FThrdgvU3FcOJhcMpGba-114" edge="1">
          <mxGeometry width="50" height="50" relative="1" as="geometry">
            <mxPoint x="185" y="-855.17" as="sourcePoint"/>
            <mxPoint x="235" y="-905.17" as="targetPoint"/>
          </mxGeometry>
        </mxCell>
        <mxCell id="FThrdgvU3FcOJhcMpGba-116" value="" style="edgeStyle=orthogonalEdgeStyle;rounded=0;orthogonalLoop=1;jettySize=auto;html=1;endArrow=oval;endFill=1;" parent="1" source="FThrdgvU3FcOJhcMpGba-119" edge="1">
          <mxGeometry relative="1" as="geometry">
            <mxPoint x="535" y="-960.1699999999998" as="targetPoint"/>
          </mxGeometry>
        </mxCell>
        <mxCell id="FThrdgvU3FcOJhcMpGba-117" style="edgeStyle=orthogonalEdgeStyle;rounded=0;orthogonalLoop=1;jettySize=auto;html=1;exitX=1;exitY=0;exitDx=0;exitDy=0;endArrow=oval;endFill=0;" parent="1" edge="1">
          <mxGeometry relative="1" as="geometry">
            <mxPoint x="535" y="-1104.9966666666667" as="targetPoint"/>
            <mxPoint x="505" y="-1085.1666666666667" as="sourcePoint"/>
          </mxGeometry>
        </mxCell>
        <mxCell id="FThrdgvU3FcOJhcMpGba-119" value="Disciplina" style="rounded=0;whiteSpace=wrap;html=1;" parent="1" vertex="1">
          <mxGeometry x="425" y="-975.17" width="80" height="30" as="geometry"/>
        </mxCell>
        <mxCell id="FThrdgvU3FcOJhcMpGba-120" value="Sport" style="rounded=0;whiteSpace=wrap;html=1;" parent="1" vertex="1">
          <mxGeometry x="425" y="-1085.17" width="80" height="30" as="geometry"/>
        </mxCell>
        <mxCell id="FThrdgvU3FcOJhcMpGba-121" value="" style="endArrow=oval;html=1;endFill=1;" parent="1" edge="1">
          <mxGeometry width="50" height="50" relative="1" as="geometry">
            <mxPoint x="215" y="-935.1699999999998" as="sourcePoint"/>
            <mxPoint x="245" y="-995.1699999999998" as="targetPoint"/>
            <Array as="points">
              <mxPoint x="295" y="-935.17"/>
              <mxPoint x="295" y="-995.17"/>
            </Array>
          </mxGeometry>
        </mxCell>
        <mxCell id="FThrdgvU3FcOJhcMpGba-122" value="Regolamento" style="text;html=1;align=center;verticalAlign=middle;resizable=0;points=[];;autosize=1;" parent="1" vertex="1">
          <mxGeometry x="515" y="-1130" width="90" height="20" as="geometry"/>
        </mxCell>
        <mxCell id="FThrdgvU3FcOJhcMpGba-123" value="Sesso" style="text;html=1;align=center;verticalAlign=middle;resizable=0;points=[];;autosize=1;" parent="1" vertex="1">
          <mxGeometry x="240" y="-925.17" width="50" height="20" as="geometry"/>
        </mxCell>
        <mxCell id="FThrdgvU3FcOJhcMpGba-124" value="" style="edgeStyle=orthogonalEdgeStyle;rounded=0;orthogonalLoop=1;jettySize=auto;html=1;endArrow=oval;endFill=1;" parent="1" edge="1">
          <mxGeometry relative="1" as="geometry">
            <mxPoint x="535" y="-1075.1666666666667" as="targetPoint"/>
            <mxPoint x="505" y="-1075.1666666666667" as="sourcePoint"/>
          </mxGeometry>
        </mxCell>
        <mxCell id="FThrdgvU3FcOJhcMpGba-125" value="&lt;div&gt;Nome&lt;/div&gt;" style="text;html=1;align=center;verticalAlign=middle;resizable=0;points=[];;autosize=1;" parent="1" vertex="1">
          <mxGeometry x="532" y="-970.17" width="50" height="20" as="geometry"/>
        </mxCell>
        <mxCell id="FThrdgvU3FcOJhcMpGba-126" value="Nome" style="text;html=1;align=center;verticalAlign=middle;resizable=0;points=[];;autosize=1;" parent="1" vertex="1">
          <mxGeometry x="535" y="-1085.17" width="50" height="20" as="geometry"/>
        </mxCell>
        <mxCell id="FThrdgvU3FcOJhcMpGba-131" style="edgeStyle=orthogonalEdgeStyle;rounded=0;orthogonalLoop=1;jettySize=auto;html=1;exitX=0.5;exitY=1;exitDx=0;exitDy=0;entryX=0.5;entryY=0;entryDx=0;entryDy=0;endArrow=none;endFill=0;" parent="1" source="FThrdgvU3FcOJhcMpGba-127" target="FThrdgvU3FcOJhcMpGba-119" edge="1">
          <mxGeometry relative="1" as="geometry"/>
        </mxCell>
        <mxCell id="FThrdgvU3FcOJhcMpGba-132" style="edgeStyle=orthogonalEdgeStyle;rounded=0;orthogonalLoop=1;jettySize=auto;html=1;exitX=0.5;exitY=0;exitDx=0;exitDy=0;entryX=0.5;entryY=1;entryDx=0;entryDy=0;endArrow=none;endFill=0;" parent="1" source="FThrdgvU3FcOJhcMpGba-127" target="FThrdgvU3FcOJhcMpGba-120" edge="1">
          <mxGeometry relative="1" as="geometry"/>
        </mxCell>
        <mxCell id="FThrdgvU3FcOJhcMpGba-127" value="Tipo" style="rhombus;whiteSpace=wrap;html=1;" parent="1" vertex="1">
          <mxGeometry x="425" y="-1035.17" width="80" height="40" as="geometry"/>
        </mxCell>
        <mxCell id="FThrdgvU3FcOJhcMpGba-129" style="edgeStyle=orthogonalEdgeStyle;rounded=0;orthogonalLoop=1;jettySize=auto;html=1;exitX=0.5;exitY=0;exitDx=0;exitDy=0;endArrow=none;endFill=0;" parent="1" source="FThrdgvU3FcOJhcMpGba-128" edge="1">
          <mxGeometry relative="1" as="geometry">
            <mxPoint x="462" y="-869.9966666666666" as="targetPoint"/>
          </mxGeometry>
        </mxCell>
        <mxCell id="FThrdgvU3FcOJhcMpGba-130" style="edgeStyle=orthogonalEdgeStyle;rounded=0;orthogonalLoop=1;jettySize=auto;html=1;exitX=0.5;exitY=1;exitDx=0;exitDy=0;entryX=0.5;entryY=0;entryDx=0;entryDy=0;endArrow=none;endFill=0;" parent="1" source="FThrdgvU3FcOJhcMpGba-128" target="FThrdgvU3FcOJhcMpGba-98" edge="1">
          <mxGeometry relative="1" as="geometry"/>
        </mxCell>
        <mxCell id="FThrdgvU3FcOJhcMpGba-128" value="Tipo" style="rhombus;whiteSpace=wrap;html=1;" parent="1" vertex="1">
          <mxGeometry x="422" y="-845.9999999999999" width="80" height="40" as="geometry"/>
        </mxCell>
        <mxCell id="FThrdgvU3FcOJhcMpGba-133" value="Disciplina come attributo: REGOLA DI VINCOLO: se lo sport non ha varie discipline, Disciplina conterrà il nome dello sport" style="text;html=1;align=center;verticalAlign=middle;resizable=0;points=[];;autosize=1;" parent="1" vertex="1">
          <mxGeometry x="37" y="-60" width="670" height="20" as="geometry"/>
        </mxCell>
        <mxCell id="FThrdgvU3FcOJhcMpGba-134" value="Disciplina come attributo opzionale: pochi valori &quot;null&quot; poiché nelle Universiadi gli sport senza varie discipline non sono tanti" style="text;html=1;align=center;verticalAlign=middle;resizable=0;points=[];;autosize=1;" parent="1" vertex="1">
          <mxGeometry x="40" y="-100" width="670" height="20" as="geometry"/>
        </mxCell>
        <mxCell id="FThrdgvU3FcOJhcMpGba-136" value="1)" style="text;html=1;align=center;verticalAlign=middle;resizable=0;points=[];;autosize=1;" parent="1" vertex="1">
          <mxGeometry x="49" y="-970.17" width="30" height="20" as="geometry"/>
        </mxCell>
        <mxCell id="FThrdgvU3FcOJhcMpGba-137" value="2)" style="text;html=1;align=center;verticalAlign=middle;resizable=0;points=[];;autosize=1;" parent="1" vertex="1">
          <mxGeometry x="49" y="-785" width="30" height="20" as="geometry"/>
        </mxCell>
        <mxCell id="FThrdgvU3FcOJhcMpGba-138" value="3)" style="text;html=1;align=center;verticalAlign=middle;resizable=0;points=[];;autosize=1;" parent="1" vertex="1">
          <mxGeometry x="49" y="-630.17" width="30" height="20" as="geometry"/>
        </mxCell>
        <mxCell id="FThrdgvU3FcOJhcMpGba-139" value="4)" style="text;html=1;align=center;verticalAlign=middle;resizable=0;points=[];;autosize=1;" parent="1" vertex="1">
          <mxGeometry x="49" y="-490.17" width="30" height="20" as="geometry"/>
        </mxCell>
        <mxCell id="FThrdgvU3FcOJhcMpGba-140" value="5)" style="text;html=1;align=center;verticalAlign=middle;resizable=0;points=[];;autosize=1;" parent="1" vertex="1">
          <mxGeometry x="49" y="-360.17" width="30" height="20" as="geometry"/>
        </mxCell>
        <mxCell id="FThrdgvU3FcOJhcMpGba-141" value="6)" style="text;html=1;align=center;verticalAlign=middle;resizable=0;points=[];;autosize=1;" parent="1" vertex="1">
          <mxGeometry x="49" y="-220.17" width="30" height="20" as="geometry"/>
        </mxCell>
        <mxCell id="YYpwYp67w8mE1CwMbGos-1" style="edgeStyle=orthogonalEdgeStyle;rounded=0;orthogonalLoop=1;jettySize=auto;html=1;exitX=0.75;exitY=1;exitDx=0;exitDy=0;endArrow=oval;endFill=1;" edge="1" source="YYpwYp67w8mE1CwMbGos-2" parent="1">
          <mxGeometry relative="1" as="geometry">
            <mxPoint x="906" y="-915" as="targetPoint"/>
          </mxGeometry>
        </mxCell>
        <mxCell id="YYpwYp67w8mE1CwMbGos-2" value="Competizione" style="rounded=0;whiteSpace=wrap;html=1;" vertex="1" parent="1">
          <mxGeometry x="816" y="-975.17" width="120" height="30" as="geometry"/>
        </mxCell>
        <mxCell id="YYpwYp67w8mE1CwMbGos-3" value="" style="edgeStyle=orthogonalEdgeStyle;rounded=0;orthogonalLoop=1;jettySize=auto;html=1;endArrow=none;endFill=0;" edge="1" source="YYpwYp67w8mE1CwMbGos-4" target="YYpwYp67w8mE1CwMbGos-8" parent="1">
          <mxGeometry relative="1" as="geometry"/>
        </mxCell>
        <mxCell id="YYpwYp67w8mE1CwMbGos-4" value="Tipo" style="rhombus;whiteSpace=wrap;html=1;" vertex="1" parent="1">
          <mxGeometry x="986" y="-980.1700000000001" width="80" height="40" as="geometry"/>
        </mxCell>
        <mxCell id="YYpwYp67w8mE1CwMbGos-5" value="" style="endArrow=none;html=1;entryX=0;entryY=0.5;entryDx=0;entryDy=0;exitX=1;exitY=0.5;exitDx=0;exitDy=0;" edge="1" source="YYpwYp67w8mE1CwMbGos-2" target="YYpwYp67w8mE1CwMbGos-4" parent="1">
          <mxGeometry width="50" height="50" relative="1" as="geometry">
            <mxPoint x="856" y="-855.17" as="sourcePoint"/>
            <mxPoint x="906" y="-905.17" as="targetPoint"/>
          </mxGeometry>
        </mxCell>
        <mxCell id="YYpwYp67w8mE1CwMbGos-6" value="" style="edgeStyle=orthogonalEdgeStyle;rounded=0;orthogonalLoop=1;jettySize=auto;html=1;endArrow=oval;endFill=1;" edge="1" source="YYpwYp67w8mE1CwMbGos-8" parent="1">
          <mxGeometry relative="1" as="geometry">
            <mxPoint x="1206" y="-960.1699999999998" as="targetPoint"/>
          </mxGeometry>
        </mxCell>
        <mxCell id="YYpwYp67w8mE1CwMbGos-8" value="Disciplina" style="rounded=0;whiteSpace=wrap;html=1;" vertex="1" parent="1">
          <mxGeometry x="1096" y="-975.17" width="80" height="30" as="geometry"/>
        </mxCell>
        <mxCell id="YYpwYp67w8mE1CwMbGos-9" value="Sport" style="rounded=0;whiteSpace=wrap;html=1;" vertex="1" parent="1">
          <mxGeometry x="1096" y="-1085.17" width="80" height="30" as="geometry"/>
        </mxCell>
        <mxCell id="YYpwYp67w8mE1CwMbGos-10" value="" style="endArrow=oval;html=1;endFill=1;" edge="1" parent="1">
          <mxGeometry width="50" height="50" relative="1" as="geometry">
            <mxPoint x="886" y="-935.1699999999998" as="sourcePoint"/>
            <mxPoint x="916" y="-995.1699999999998" as="targetPoint"/>
            <Array as="points">
              <mxPoint x="966" y="-935.17"/>
              <mxPoint x="966" y="-995.1700000000001"/>
            </Array>
          </mxGeometry>
        </mxCell>
        <mxCell id="YYpwYp67w8mE1CwMbGos-12" value="Sesso" style="text;html=1;align=center;verticalAlign=middle;resizable=0;points=[];;autosize=1;" vertex="1" parent="1">
          <mxGeometry x="911" y="-925.17" width="50" height="20" as="geometry"/>
        </mxCell>
        <mxCell id="YYpwYp67w8mE1CwMbGos-13" value="" style="edgeStyle=orthogonalEdgeStyle;rounded=0;orthogonalLoop=1;jettySize=auto;html=1;endArrow=oval;endFill=1;" edge="1" parent="1">
          <mxGeometry relative="1" as="geometry">
            <mxPoint x="1206" y="-1075" as="targetPoint"/>
            <mxPoint x="1176" y="-1075.1666666666667" as="sourcePoint"/>
          </mxGeometry>
        </mxCell>
        <mxCell id="YYpwYp67w8mE1CwMbGos-14" value="&lt;div&gt;Nome&lt;/div&gt;" style="text;html=1;align=center;verticalAlign=middle;resizable=0;points=[];;autosize=1;" vertex="1" parent="1">
          <mxGeometry x="1206" y="-970.17" width="50" height="20" as="geometry"/>
        </mxCell>
        <mxCell id="YYpwYp67w8mE1CwMbGos-15" value="Nome" style="text;html=1;align=center;verticalAlign=middle;resizable=0;points=[];;autosize=1;" vertex="1" parent="1">
          <mxGeometry x="1206" y="-1085.17" width="50" height="20" as="geometry"/>
        </mxCell>
        <mxCell id="YYpwYp67w8mE1CwMbGos-16" style="edgeStyle=orthogonalEdgeStyle;rounded=0;orthogonalLoop=1;jettySize=auto;html=1;exitX=0.5;exitY=1;exitDx=0;exitDy=0;entryX=0.5;entryY=0;entryDx=0;entryDy=0;endArrow=none;endFill=0;" edge="1" source="YYpwYp67w8mE1CwMbGos-18" target="YYpwYp67w8mE1CwMbGos-8" parent="1">
          <mxGeometry relative="1" as="geometry"/>
        </mxCell>
        <mxCell id="YYpwYp67w8mE1CwMbGos-17" style="edgeStyle=orthogonalEdgeStyle;rounded=0;orthogonalLoop=1;jettySize=auto;html=1;exitX=0.5;exitY=0;exitDx=0;exitDy=0;entryX=0.5;entryY=1;entryDx=0;entryDy=0;endArrow=none;endFill=0;" edge="1" source="YYpwYp67w8mE1CwMbGos-18" target="YYpwYp67w8mE1CwMbGos-9" parent="1">
          <mxGeometry relative="1" as="geometry"/>
        </mxCell>
        <mxCell id="YYpwYp67w8mE1CwMbGos-18" value="Tipo" style="rhombus;whiteSpace=wrap;html=1;" vertex="1" parent="1">
          <mxGeometry x="1096" y="-1035.17" width="80" height="40" as="geometry"/>
        </mxCell>
        <mxCell id="YYpwYp67w8mE1CwMbGos-19" value="&lt;div&gt;7)&lt;/div&gt;" style="text;html=1;align=center;verticalAlign=middle;resizable=0;points=[];;autosize=1;" vertex="1" parent="1">
          <mxGeometry x="720" y="-970.17" width="30" height="20" as="geometry"/>
        </mxCell>
        <mxCell id="YYpwYp67w8mE1CwMbGos-20" value="" style="endArrow=oval;html=1;endFill=1;" edge="1" parent="1">
          <mxGeometry width="50" height="50" relative="1" as="geometry">
            <mxPoint x="1190" y="-940" as="sourcePoint"/>
            <mxPoint x="1110" y="-985" as="targetPoint"/>
            <Array as="points">
              <mxPoint x="1190" y="-985.1700000000002"/>
            </Array>
          </mxGeometry>
        </mxCell>
        <mxCell id="YYpwYp67w8mE1CwMbGos-21" value="&lt;div&gt;(0,1)&lt;/div&gt;" style="text;html=1;align=center;verticalAlign=middle;resizable=0;points=[];;autosize=1;" vertex="1" parent="1">
          <mxGeometry x="465" y="-995.17" width="40" height="20" as="geometry"/>
        </mxCell>
        <mxCell id="YYpwYp67w8mE1CwMbGos-22" value="(1,n)" style="text;html=1;align=center;verticalAlign=middle;resizable=0;points=[];;autosize=1;" vertex="1" parent="1">
          <mxGeometry x="462" y="-1055.17" width="40" height="20" as="geometry"/>
        </mxCell>
        <mxCell id="YYpwYp67w8mE1CwMbGos-24" value="&lt;div&gt;(1,1)&lt;/div&gt;" style="text;html=1;align=center;verticalAlign=middle;resizable=0;points=[];;autosize=1;" vertex="1" parent="1">
          <mxGeometry x="262" y="-980.17" width="40" height="20" as="geometry"/>
        </mxCell>
        <mxCell id="YYpwYp67w8mE1CwMbGos-25" value="(1,n)" style="text;html=1;align=center;verticalAlign=middle;resizable=0;points=[];;autosize=1;" vertex="1" parent="1">
          <mxGeometry x="392" y="-980.17" width="40" height="20" as="geometry"/>
        </mxCell>
        <mxCell id="YYpwYp67w8mE1CwMbGos-26" value="&lt;div&gt;(1,1)&lt;/div&gt;" style="text;html=1;align=center;verticalAlign=middle;resizable=0;points=[];;autosize=1;" vertex="1" parent="1">
          <mxGeometry x="260" y="-795" width="40" height="20" as="geometry"/>
        </mxCell>
        <mxCell id="YYpwYp67w8mE1CwMbGos-27" value="&lt;div&gt;(1,1)&lt;/div&gt;" style="text;html=1;align=center;verticalAlign=middle;resizable=0;points=[];;autosize=1;" vertex="1" parent="1">
          <mxGeometry x="260" y="-640.17" width="40" height="20" as="geometry"/>
        </mxCell>
        <mxCell id="YYpwYp67w8mE1CwMbGos-30" value="&lt;div&gt;(1,1)&lt;/div&gt;" style="text;html=1;align=center;verticalAlign=middle;resizable=0;points=[];;autosize=1;" vertex="1" parent="1">
          <mxGeometry x="260" y="-500.17" width="40" height="20" as="geometry"/>
        </mxCell>
        <mxCell id="YYpwYp67w8mE1CwMbGos-31" value="&lt;div&gt;(1,1)&lt;/div&gt;" style="text;html=1;align=center;verticalAlign=middle;resizable=0;points=[];;autosize=1;" vertex="1" parent="1">
          <mxGeometry x="260" y="-370.17" width="40" height="20" as="geometry"/>
        </mxCell>
        <mxCell id="YYpwYp67w8mE1CwMbGos-32" value="&lt;div&gt;(1,1)&lt;/div&gt;" style="text;html=1;align=center;verticalAlign=middle;resizable=0;points=[];;autosize=1;" vertex="1" parent="1">
          <mxGeometry x="260" y="-230.17000000000002" width="40" height="20" as="geometry"/>
        </mxCell>
        <mxCell id="YYpwYp67w8mE1CwMbGos-33" value="&lt;div&gt;(1,1)&lt;/div&gt;" style="text;html=1;align=center;verticalAlign=middle;resizable=0;points=[];;autosize=1;" vertex="1" parent="1">
          <mxGeometry x="930" y="-980.17" width="40" height="20" as="geometry"/>
        </mxCell>
        <mxCell id="YYpwYp67w8mE1CwMbGos-34" style="edgeStyle=orthogonalEdgeStyle;rounded=0;orthogonalLoop=1;jettySize=auto;html=1;exitX=0.931;exitY=-0.017;exitDx=0;exitDy=0;entryX=0.429;entryY=1;entryDx=0;entryDy=0;entryPerimeter=0;endArrow=oval;endFill=1;exitPerimeter=0;" edge="1" target="YYpwYp67w8mE1CwMbGos-35" parent="1" source="FThrdgvU3FcOJhcMpGba-112">
          <mxGeometry relative="1" as="geometry">
            <mxPoint x="257" y="-990.3299999999999" as="sourcePoint"/>
          </mxGeometry>
        </mxCell>
        <mxCell id="YYpwYp67w8mE1CwMbGos-35" value="Anno" style="text;html=1;align=center;verticalAlign=middle;resizable=0;points=[];;autosize=1;" vertex="1" parent="1">
          <mxGeometry x="240" y="-1035.17" width="40" height="20" as="geometry"/>
        </mxCell>
        <mxCell id="YYpwYp67w8mE1CwMbGos-36" value="Anno" style="text;html=1;align=center;verticalAlign=middle;resizable=0;points=[];;autosize=1;" vertex="1" parent="1">
          <mxGeometry x="237" y="-849.31" width="40" height="20" as="geometry"/>
        </mxCell>
        <mxCell id="YYpwYp67w8mE1CwMbGos-37" style="edgeStyle=orthogonalEdgeStyle;rounded=0;orthogonalLoop=1;jettySize=auto;html=1;exitX=0.931;exitY=-0.017;exitDx=0;exitDy=0;entryX=0.429;entryY=1;entryDx=0;entryDy=0;entryPerimeter=0;endArrow=oval;endFill=1;exitPerimeter=0;" edge="1" target="YYpwYp67w8mE1CwMbGos-36" parent="1">
          <mxGeometry relative="1" as="geometry">
            <mxPoint x="253.71428571428578" y="-789.9971428571428" as="sourcePoint"/>
          </mxGeometry>
        </mxCell>
        <mxCell id="YYpwYp67w8mE1CwMbGos-38" value="Anno" style="text;html=1;align=center;verticalAlign=middle;resizable=0;points=[];;autosize=1;" vertex="1" parent="1">
          <mxGeometry x="240" y="-694.48" width="40" height="20" as="geometry"/>
        </mxCell>
        <mxCell id="YYpwYp67w8mE1CwMbGos-39" style="edgeStyle=orthogonalEdgeStyle;rounded=0;orthogonalLoop=1;jettySize=auto;html=1;exitX=0.931;exitY=-0.017;exitDx=0;exitDy=0;entryX=0.429;entryY=1;entryDx=0;entryDy=0;entryPerimeter=0;endArrow=oval;endFill=1;exitPerimeter=0;" edge="1" target="YYpwYp67w8mE1CwMbGos-38" parent="1">
          <mxGeometry relative="1" as="geometry">
            <mxPoint x="256.7142857142858" y="-635.1671428571428" as="sourcePoint"/>
          </mxGeometry>
        </mxCell>
        <mxCell id="YYpwYp67w8mE1CwMbGos-40" value="Anno" style="text;html=1;align=center;verticalAlign=middle;resizable=0;points=[];;autosize=1;" vertex="1" parent="1">
          <mxGeometry x="242" y="-554.48" width="40" height="20" as="geometry"/>
        </mxCell>
        <mxCell id="YYpwYp67w8mE1CwMbGos-41" style="edgeStyle=orthogonalEdgeStyle;rounded=0;orthogonalLoop=1;jettySize=auto;html=1;exitX=0.931;exitY=-0.017;exitDx=0;exitDy=0;entryX=0.429;entryY=1;entryDx=0;entryDy=0;entryPerimeter=0;endArrow=oval;endFill=1;exitPerimeter=0;" edge="1" target="YYpwYp67w8mE1CwMbGos-40" parent="1">
          <mxGeometry relative="1" as="geometry">
            <mxPoint x="258.7142857142858" y="-495.16714285714284" as="sourcePoint"/>
          </mxGeometry>
        </mxCell>
        <mxCell id="YYpwYp67w8mE1CwMbGos-42" value="Anno" style="text;html=1;align=center;verticalAlign=middle;resizable=0;points=[];;autosize=1;" vertex="1" parent="1">
          <mxGeometry x="237" y="-424.48" width="40" height="20" as="geometry"/>
        </mxCell>
        <mxCell id="YYpwYp67w8mE1CwMbGos-43" style="edgeStyle=orthogonalEdgeStyle;rounded=0;orthogonalLoop=1;jettySize=auto;html=1;exitX=0.931;exitY=-0.017;exitDx=0;exitDy=0;entryX=0.429;entryY=1;entryDx=0;entryDy=0;entryPerimeter=0;endArrow=oval;endFill=1;exitPerimeter=0;" edge="1" target="YYpwYp67w8mE1CwMbGos-42" parent="1">
          <mxGeometry relative="1" as="geometry">
            <mxPoint x="253.71428571428578" y="-365.16714285714284" as="sourcePoint"/>
          </mxGeometry>
        </mxCell>
        <mxCell id="YYpwYp67w8mE1CwMbGos-44" value="Anno" style="text;html=1;align=center;verticalAlign=middle;resizable=0;points=[];;autosize=1;" vertex="1" parent="1">
          <mxGeometry x="240" y="-284.48" width="40" height="20" as="geometry"/>
        </mxCell>
        <mxCell id="YYpwYp67w8mE1CwMbGos-45" style="edgeStyle=orthogonalEdgeStyle;rounded=0;orthogonalLoop=1;jettySize=auto;html=1;exitX=0.931;exitY=-0.017;exitDx=0;exitDy=0;entryX=0.429;entryY=1;entryDx=0;entryDy=0;entryPerimeter=0;endArrow=oval;endFill=1;exitPerimeter=0;" edge="1" target="YYpwYp67w8mE1CwMbGos-44" parent="1">
          <mxGeometry relative="1" as="geometry">
            <mxPoint x="256.7142857142858" y="-225.1671428571428" as="sourcePoint"/>
          </mxGeometry>
        </mxCell>
        <mxCell id="YYpwYp67w8mE1CwMbGos-46" value="Anno" style="text;html=1;align=center;verticalAlign=middle;resizable=0;points=[];;autosize=1;" vertex="1" parent="1">
          <mxGeometry x="911" y="-1035.17" width="40" height="20" as="geometry"/>
        </mxCell>
        <mxCell id="YYpwYp67w8mE1CwMbGos-47" style="edgeStyle=orthogonalEdgeStyle;rounded=0;orthogonalLoop=1;jettySize=auto;html=1;exitX=0.931;exitY=-0.017;exitDx=0;exitDy=0;entryX=0.429;entryY=1;entryDx=0;entryDy=0;entryPerimeter=0;endArrow=oval;endFill=1;exitPerimeter=0;" edge="1" target="YYpwYp67w8mE1CwMbGos-46" parent="1">
          <mxGeometry relative="1" as="geometry">
            <mxPoint x="927.7142857142858" y="-975.8571428571428" as="sourcePoint"/>
          </mxGeometry>
        </mxCell>
        <mxCell id="YYpwYp67w8mE1CwMbGos-48" value="(1,n)" style="text;html=1;align=center;verticalAlign=middle;resizable=0;points=[];;autosize=1;" vertex="1" parent="1">
          <mxGeometry x="385" y="-795" width="40" height="20" as="geometry"/>
        </mxCell>
        <mxCell id="YYpwYp67w8mE1CwMbGos-49" value="(1,n)" style="text;html=1;align=center;verticalAlign=middle;resizable=0;points=[];;autosize=1;" vertex="1" parent="1">
          <mxGeometry x="392" y="-640.17" width="40" height="20" as="geometry"/>
        </mxCell>
        <mxCell id="YYpwYp67w8mE1CwMbGos-50" value="(1,n)" style="text;html=1;align=center;verticalAlign=middle;resizable=0;points=[];;autosize=1;" vertex="1" parent="1">
          <mxGeometry x="385" y="-500.17" width="40" height="20" as="geometry"/>
        </mxCell>
        <mxCell id="YYpwYp67w8mE1CwMbGos-51" value="(1,n)" style="text;html=1;align=center;verticalAlign=middle;resizable=0;points=[];;autosize=1;" vertex="1" parent="1">
          <mxGeometry x="392" y="-370.17" width="40" height="20" as="geometry"/>
        </mxCell>
        <mxCell id="YYpwYp67w8mE1CwMbGos-52" value="(1,n)" style="text;html=1;align=center;verticalAlign=middle;resizable=0;points=[];;autosize=1;" vertex="1" parent="1">
          <mxGeometry x="392" y="-230.17000000000002" width="40" height="20" as="geometry"/>
        </mxCell>
        <mxCell id="YYpwYp67w8mE1CwMbGos-53" value="(1,n)" style="text;html=1;align=center;verticalAlign=middle;resizable=0;points=[];;autosize=1;" vertex="1" parent="1">
          <mxGeometry x="1056" y="-980.17" width="40" height="20" as="geometry"/>
        </mxCell>
        <mxCell id="YYpwYp67w8mE1CwMbGos-54" value="&lt;div&gt;Sbagliato perché manca l&#39;informazione su di che disciplina è la competizione&lt;/div&gt;" style="text;html=1;align=center;verticalAlign=middle;resizable=0;points=[];;autosize=1;" vertex="1" parent="1">
          <mxGeometry x="300" y="-740" width="440" height="20" as="geometry"/>
        </mxCell>
        <mxCell id="YYpwYp67w8mE1CwMbGos-56" value="&lt;div&gt;Sbagliato perché permettiamo di avere competizioni con disciplina uguale ma sport diversi&lt;/div&gt;" style="text;html=1;align=center;verticalAlign=middle;resizable=0;points=[];autosize=1;" vertex="1" parent="1">
          <mxGeometry x="305" y="-595.17" width="510" height="20" as="geometry"/>
        </mxCell>
        <mxCell id="YYpwYp67w8mE1CwMbGos-57" value="Sbagliato perché ogni sport potrà avere una sola disciplina" style="text;html=1;align=center;verticalAlign=middle;resizable=0;points=[];autosize=1;" vertex="1" parent="1">
          <mxGeometry x="305" y="-455.17" width="340" height="20" as="geometry"/>
        </mxCell>
        <mxCell id="YYpwYp67w8mE1CwMbGos-58" value="&lt;div&gt;Sbagliato perché così non è possibile avere regolamenti diversi per discipline diverse&lt;/div&gt;" style="text;html=1;align=center;verticalAlign=middle;resizable=0;points=[];autosize=1;" vertex="1" parent="1">
          <mxGeometry x="282" y="-321" width="480" height="20" as="geometry"/>
        </mxCell>
        <mxCell id="YYpwYp67w8mE1CwMbGos-59" value="&lt;div&gt;Sbagliato perché così non è possibile avere regolamenti diversi per discipline diverse&lt;/div&gt;" style="text;html=1;align=center;verticalAlign=middle;resizable=0;points=[];autosize=1;" vertex="1" parent="1">
          <mxGeometry x="305" y="-180" width="480" height="20" as="geometry"/>
        </mxCell>
        <mxCell id="YYpwYp67w8mE1CwMbGos-60" value="&lt;div&gt;Brutto perché per evitare collisioni tra i nomi di discipline&lt;/div&gt;&lt;div&gt;diverse (es. le varie categorie di peso in sport diversi)&lt;/div&gt;&lt;div&gt;dovremo comunque inserire il nome dello&lt;/div&gt;&lt;div&gt;sport dentro l&#39;attributo &quot;Nome&quot; di DISCIPLINA&lt;br&gt;&lt;/div&gt;" style="text;html=1;align=center;verticalAlign=middle;resizable=0;points=[];autosize=1;" vertex="1" parent="1">
          <mxGeometry x="89" y="-1105.17" width="320" height="60" as="geometry"/>
        </mxCell>
        <mxCell id="YYpwYp67w8mE1CwMbGos-61" value="Competizione" style="rounded=0;whiteSpace=wrap;html=1;" vertex="1" parent="1">
          <mxGeometry x="816" y="-786.69" width="120" height="30" as="geometry"/>
        </mxCell>
        <mxCell id="YYpwYp67w8mE1CwMbGos-62" value="" style="edgeStyle=orthogonalEdgeStyle;rounded=0;orthogonalLoop=1;jettySize=auto;html=1;endArrow=none;endFill=0;" edge="1" source="YYpwYp67w8mE1CwMbGos-64" target="YYpwYp67w8mE1CwMbGos-68" parent="1">
          <mxGeometry relative="1" as="geometry"/>
        </mxCell>
        <mxCell id="YYpwYp67w8mE1CwMbGos-63" value="" style="edgeStyle=orthogonalEdgeStyle;rounded=0;orthogonalLoop=1;jettySize=auto;html=1;endArrow=oval;endFill=0;" edge="1" source="YYpwYp67w8mE1CwMbGos-64" parent="1">
          <mxGeometry relative="1" as="geometry">
            <mxPoint x="1026" y="-816.69" as="targetPoint"/>
          </mxGeometry>
        </mxCell>
        <mxCell id="YYpwYp67w8mE1CwMbGos-80" style="edgeStyle=orthogonalEdgeStyle;rounded=0;orthogonalLoop=1;jettySize=auto;html=1;endArrow=oval;endFill=0;" edge="1" parent="1" source="YYpwYp67w8mE1CwMbGos-64">
          <mxGeometry relative="1" as="geometry">
            <mxPoint x="1026" y="-720" as="targetPoint"/>
          </mxGeometry>
        </mxCell>
        <mxCell id="YYpwYp67w8mE1CwMbGos-64" value="Tipo" style="rhombus;whiteSpace=wrap;html=1;" vertex="1" parent="1">
          <mxGeometry x="986" y="-791.69" width="80" height="40" as="geometry"/>
        </mxCell>
        <mxCell id="YYpwYp67w8mE1CwMbGos-65" value="" style="endArrow=none;html=1;entryX=0;entryY=0.5;entryDx=0;entryDy=0;exitX=1;exitY=0.5;exitDx=0;exitDy=0;" edge="1" source="YYpwYp67w8mE1CwMbGos-61" target="YYpwYp67w8mE1CwMbGos-64" parent="1">
          <mxGeometry width="50" height="50" relative="1" as="geometry">
            <mxPoint x="856" y="-666.69" as="sourcePoint"/>
            <mxPoint x="906" y="-716.69" as="targetPoint"/>
          </mxGeometry>
        </mxCell>
        <mxCell id="YYpwYp67w8mE1CwMbGos-66" value="" style="edgeStyle=orthogonalEdgeStyle;rounded=0;orthogonalLoop=1;jettySize=auto;html=1;endArrow=oval;endFill=1;" edge="1" source="YYpwYp67w8mE1CwMbGos-68" parent="1">
          <mxGeometry relative="1" as="geometry">
            <mxPoint x="1206" y="-771.69" as="targetPoint"/>
          </mxGeometry>
        </mxCell>
        <mxCell id="YYpwYp67w8mE1CwMbGos-68" value="Sport" style="rounded=0;whiteSpace=wrap;html=1;" vertex="1" parent="1">
          <mxGeometry x="1096" y="-786.69" width="80" height="30" as="geometry"/>
        </mxCell>
        <mxCell id="YYpwYp67w8mE1CwMbGos-69" value="" style="endArrow=oval;html=1;endFill=1;" edge="1" parent="1">
          <mxGeometry width="50" height="50" relative="1" as="geometry">
            <mxPoint x="886" y="-746.69" as="sourcePoint"/>
            <mxPoint x="916" y="-806.69" as="targetPoint"/>
            <Array as="points">
              <mxPoint x="966" y="-746.69"/>
              <mxPoint x="966" y="-806.69"/>
            </Array>
          </mxGeometry>
        </mxCell>
        <mxCell id="YYpwYp67w8mE1CwMbGos-70" value="Disciplina (0,1)" style="text;html=1;align=center;verticalAlign=middle;resizable=0;points=[];;autosize=1;" vertex="1" parent="1">
          <mxGeometry x="986" y="-836.69" width="90" height="20" as="geometry"/>
        </mxCell>
        <mxCell id="YYpwYp67w8mE1CwMbGos-71" value="Nome" style="text;html=1;align=center;verticalAlign=middle;resizable=0;points=[];;autosize=1;" vertex="1" parent="1">
          <mxGeometry x="1206" y="-781.69" width="50" height="20" as="geometry"/>
        </mxCell>
        <mxCell id="YYpwYp67w8mE1CwMbGos-72" value="Regolamento (0,1)" style="text;html=1;align=center;verticalAlign=middle;resizable=0;points=[];;autosize=1;" vertex="1" parent="1">
          <mxGeometry x="965.9999999999999" y="-714.48" width="120" height="20" as="geometry"/>
        </mxCell>
        <mxCell id="YYpwYp67w8mE1CwMbGos-73" style="edgeStyle=orthogonalEdgeStyle;rounded=0;orthogonalLoop=1;jettySize=auto;html=1;exitX=0.75;exitY=1;exitDx=0;exitDy=0;endArrow=oval;endFill=1;" edge="1" parent="1">
          <mxGeometry relative="1" as="geometry">
            <mxPoint x="906" y="-727.0914285714287" as="targetPoint"/>
            <mxPoint x="906" y="-756.6866666666665" as="sourcePoint"/>
          </mxGeometry>
        </mxCell>
        <mxCell id="YYpwYp67w8mE1CwMbGos-74" value="Sesso" style="text;html=1;align=center;verticalAlign=middle;resizable=0;points=[];;autosize=1;" vertex="1" parent="1">
          <mxGeometry x="886" y="-726.52" width="50" height="20" as="geometry"/>
        </mxCell>
        <mxCell id="YYpwYp67w8mE1CwMbGos-75" value="&lt;div&gt;(1,1)&lt;/div&gt;" style="text;html=1;align=center;verticalAlign=middle;resizable=0;points=[];;autosize=1;" vertex="1" parent="1">
          <mxGeometry x="931" y="-791.69" width="40" height="20" as="geometry"/>
        </mxCell>
        <mxCell id="YYpwYp67w8mE1CwMbGos-76" value="Anno" style="text;html=1;align=center;verticalAlign=middle;resizable=0;points=[];;autosize=1;" vertex="1" parent="1">
          <mxGeometry x="908" y="-846" width="40" height="20" as="geometry"/>
        </mxCell>
        <mxCell id="YYpwYp67w8mE1CwMbGos-77" style="edgeStyle=orthogonalEdgeStyle;rounded=0;orthogonalLoop=1;jettySize=auto;html=1;exitX=0.931;exitY=-0.017;exitDx=0;exitDy=0;entryX=0.429;entryY=1;entryDx=0;entryDy=0;entryPerimeter=0;endArrow=oval;endFill=1;exitPerimeter=0;" edge="1" target="YYpwYp67w8mE1CwMbGos-76" parent="1">
          <mxGeometry relative="1" as="geometry">
            <mxPoint x="924.7142857142858" y="-786.6871428571428" as="sourcePoint"/>
          </mxGeometry>
        </mxCell>
        <mxCell id="YYpwYp67w8mE1CwMbGos-78" value="(1,n)" style="text;html=1;align=center;verticalAlign=middle;resizable=0;points=[];;autosize=1;" vertex="1" parent="1">
          <mxGeometry x="1063" y="-791.69" width="40" height="20" as="geometry"/>
        </mxCell>
        <mxCell id="YYpwYp67w8mE1CwMbGos-79" value="8)" style="text;html=1;align=center;verticalAlign=middle;resizable=0;points=[];;autosize=1;" vertex="1" parent="1">
          <mxGeometry x="720" y="-781.69" width="30" height="20" as="geometry"/>
        </mxCell>
        <mxCell id="YYpwYp67w8mE1CwMbGos-81" value="&lt;div&gt;Regolamento (0,1)&lt;/div&gt;" style="text;html=1;align=center;verticalAlign=middle;resizable=0;points=[];;autosize=1;" vertex="1" parent="1">
          <mxGeometry x="1206" y="-816.69" width="120" height="20" as="geometry"/>
        </mxCell>
        <mxCell id="YYpwYp67w8mE1CwMbGos-82" style="edgeStyle=orthogonalEdgeStyle;rounded=0;orthogonalLoop=1;jettySize=auto;html=1;exitX=1;exitY=0;exitDx=0;exitDy=0;endArrow=oval;endFill=0;" edge="1" parent="1">
          <mxGeometry relative="1" as="geometry">
            <mxPoint x="1205.71" y="-806.52" as="targetPoint"/>
            <mxPoint x="1175.9957142857143" y="-786.52" as="sourcePoint"/>
          </mxGeometry>
        </mxCell>
        <mxCell id="YYpwYp67w8mE1CwMbGos-83" value="&lt;div align=&quot;left&quot;&gt;Ripetizione di &quot;Nome&quot; di DISCIPLINA in &quot;Nome&quot; di SPORT&lt;br&gt;&lt;/div&gt;&lt;div align=&quot;left&quot;&gt;&amp;nbsp;nel caso di Sport senza discipline, ad esempio il Calcio&lt;/div&gt;" style="text;html=1;align=left;verticalAlign=middle;resizable=0;points=[];autosize=1;" vertex="1" parent="1">
          <mxGeometry x="1290" y="-1110.17" width="330" height="30" as="geometry"/>
        </mxCell>
        <mxCell id="YYpwYp67w8mE1CwMbGos-84" value="Regolamento" style="text;html=1;align=center;verticalAlign=middle;resizable=0;points=[];;autosize=1;" vertex="1" parent="1">
          <mxGeometry x="1106" y="-914.97" width="90" height="20" as="geometry"/>
        </mxCell>
        <mxCell id="YYpwYp67w8mE1CwMbGos-85" style="edgeStyle=orthogonalEdgeStyle;rounded=0;orthogonalLoop=1;jettySize=auto;html=1;exitX=0.709;exitY=0.987;exitDx=0;exitDy=0;endArrow=oval;endFill=0;entryX=0.525;entryY=0.07;entryDx=0;entryDy=0;entryPerimeter=0;exitPerimeter=0;" edge="1" parent="1" source="YYpwYp67w8mE1CwMbGos-8" target="YYpwYp67w8mE1CwMbGos-84">
          <mxGeometry relative="1" as="geometry">
            <mxPoint x="1150.9271428571428" y="-934.8000000000001" as="targetPoint"/>
            <mxPoint x="1121.07" y="-914.9666666666668" as="sourcePoint"/>
          </mxGeometry>
        </mxCell>
        <mxCell id="YYpwYp67w8mE1CwMbGos-87" value="&lt;div align=&quot;left&quot;&gt;Disciplina non può identificare un&#39;entità, dato che è attributo opzionale di una relazione.&lt;/div&gt;&lt;div align=&quot;left&quot;&gt;Quindi non potranno esserci competizioni per lo stesso sesso, svolte nello&lt;/div&gt;&lt;div align=&quot;left&quot;&gt;stesso anno, dello stesso sport ma di discipline diverse (es. non è possibile avere una&lt;/div&gt;&lt;div align=&quot;left&quot;&gt;competizione del 2019, maschile, di nuoto, disciplina stile libero 100m, ed una competizione&lt;/div&gt;&lt;div align=&quot;left&quot;&gt;del 2019, maschile, di nuoto, disciplina rana 200m, perché avranno identificatori uguali)&lt;br&gt;&lt;/div&gt;" style="text;html=1;align=center;verticalAlign=middle;resizable=0;points=[];autosize=1;" vertex="1" parent="1">
          <mxGeometry x="1148.57" y="-740" width="520" height="80" as="geometry"/>
        </mxCell>
        <mxCell id="YYpwYp67w8mE1CwMbGos-88" value="(1,1)" style="text;html=1;align=center;verticalAlign=middle;resizable=0;points=[];;autosize=1;" vertex="1" parent="1">
          <mxGeometry x="1148.57" y="-1010" width="40" height="20" as="geometry"/>
        </mxCell>
        <mxCell id="YYpwYp67w8mE1CwMbGos-89" value="(1,n)" style="text;html=1;align=center;verticalAlign=middle;resizable=0;points=[];;autosize=1;" vertex="1" parent="1">
          <mxGeometry x="1140" y="-1055.17" width="40" height="20" as="geometry"/>
        </mxCell>
      </root>
    </mxGraphModel>
  </diagram>
</mxfile>
